<svg xmlns="http://www.w3.org/2000/svg" xmlns:xlink="http://www.w3.org/1999/xlink" width="1500" zoomAndPan="magnify" viewBox="0 0 1125 1124.99995" height="1500" preserveAspectRatio="xMidYMid meet" version="1.0"><path fill="#ffffff" d="M 533.855469 328.820312 C 528.589844 329.464844 521.554688 331.480469 517.476562 333.503906 C 508.054688 338.183594 507.628906 338.945312 464.585938 427.605469 C 460.132812 436.769531 450.519531 456.457031 443.222656 471.355469 C 417.6875 523.460938 404.886719 549.628906 395.832031 568.230469 C 387.328125 585.695312 379.179688 602.367188 342.367188 677.605469 C 334.519531 693.644531 324.894531 713.332031 320.984375 721.355469 L 313.871094 735.9375 L 337.925781 736.261719 C 351.15625 736.4375 366.835938 736.273438 372.773438 735.894531 L 383.566406 735.199219 L 407.007812 687.652344 C 419.898438 661.5 434.089844 632.605469 438.539062 623.4375 C 442.992188 614.269531 456.703125 586.378906 469.011719 561.457031 C 490.8125 517.324219 491.535156 516.039062 496.746094 511.980469 C 513.566406 498.878906 531.40625 492.738281 552.675781 492.714844 C 566.457031 492.703125 575.824219 496.691406 579.726562 504.238281 C 581.65625 507.976562 581.691406 517.269531 579.789062 522.523438 C 578.277344 526.714844 549.886719 584.476562 508.691406 667.1875 C 495.566406 693.542969 482.636719 719.675781 479.960938 725.261719 L 475.089844 735.417969 L 544.5625 735.417969 L 546.667969 730.988281 C 547.824219 728.554688 552.851562 718.125 557.835938 707.8125 C 562.820312 697.5 568.671875 685.3125 570.835938 680.730469 C 573.003906 676.144531 578.625 664.425781 583.332031 654.6875 C 588.035156 644.949219 599.984375 620.105469 609.882812 599.480469 C 619.785156 578.855469 633.121094 551.199219 639.519531 538.019531 C 645.917969 524.84375 652.617188 510.078125 654.410156 505.207031 C 657.378906 497.121094 657.667969 495.226562 657.738281 483.332031 C 657.824219 468.238281 656.457031 463.984375 648.851562 455.734375 C 643.292969 449.703125 638.121094 446.675781 628.125 443.597656 C 621.347656 441.511719 618.171875 441.199219 604.167969 441.242188 C 573.675781 441.335938 549.023438 448.433594 526.300781 463.660156 C 522.148438 466.445312 518.75 468.5625 518.75 468.367188 C 518.75 468.171875 522.199219 460.792969 526.414062 451.972656 C 530.628906 443.152344 535.269531 433.359375 536.726562 430.207031 C 538.183594 427.058594 542.054688 418.855469 545.332031 411.980469 C 548.605469 405.105469 553.054688 395.730469 555.214844 391.144531 C 557.375 386.5625 561.589844 377.65625 564.582031 371.355469 C 580.558594 337.695312 579.148438 341.410156 576.898438 338.9375 C 569.792969 331.121094 551.035156 326.714844 533.855469 328.820312 M 1067.703125 401.054688 C 1047.765625 440.953125 1041.851562 451.957031 1040.628906 451.417969 C 1011.542969 438.625 986.042969 436.609375 958.128906 444.902344 C 928.980469 453.5625 888.390625 480.414062 856.730469 511.980469 C 822.960938 545.648438 797.363281 586.144531 783.214844 628.273438 C 776.578125 648.046875 774.683594 658.640625 774.578125 676.5625 C 774.476562 693.894531 775.648438 699.671875 781.511719 710.726562 C 785.835938 718.871094 799.511719 731.722656 808.667969 736.238281 C 821.433594 742.539062 829.484375 744.074219 850 744.125 C 869.113281 744.171875 881.53125 742.570312 914.582031 735.804688 C 953.273438 727.882812 977.648438 713.828125 993.882812 690.082031 C 996.226562 686.65625 1010.921875 658.074219 1026.542969 626.5625 C 1042.164062 595.050781 1070.472656 537.984375 1089.453125 499.742188 C 1108.429688 461.503906 1123.957031 429.917969 1123.957031 429.550781 C 1123.957031 428.027344 1094.414062 350 1093.839844 350 C 1093.496094 350 1081.730469 372.972656 1067.703125 401.054688 M 259.375 442.820312 C 205.570312 447.527344 172.65625 461.433594 153.152344 487.699219 C 146.414062 496.773438 142.953125 503.328125 97.460938 593.230469 C 82.09375 623.59375 66.832031 653.59375 63.546875 659.894531 C 60.257812 666.199219 46.183594 693.855469 32.269531 721.355469 C 18.351562 748.855469 5.632812 773.882812 4.003906 776.96875 C 2.375 780.058594 1.042969 783.019531 1.042969 783.550781 C 1.042969 784.453125 23.851562 839.503906 29.746094 852.835938 L 32.410156 858.855469 L 52.761719 817.707031 C 63.957031 795.078125 77.980469 766.601562 83.929688 754.425781 C 89.878906 742.253906 94.953125 732.292969 95.210938 732.292969 C 95.472656 732.292969 100.054688 733.476562 105.394531 734.925781 C 139.695312 744.226562 174.324219 741.855469 205.730469 728.054688 C 258.546875 704.839844 318.023438 638.867188 347.808594 570.457031 C 358.578125 545.722656 362.773438 528.183594 362.917969 507.292969 C 363.011719 493.316406 362.804688 491.554688 360.101562 483.6875 C 358.496094 479.011719 355.300781 472.558594 353 469.347656 C 338.101562 448.542969 304.089844 438.90625 259.375 442.820312 M 977.605469 483.769531 C 968.433594 485.847656 965.113281 487.027344 957.21875 491.039062 C 917.652344 511.140625 876.820312 562.960938 860.605469 613.648438 C 855.585938 629.34375 853.925781 638.929688 853.851562 652.605469 C 853.761719 670 857.007812 680.484375 865.339844 689.707031 C 871.140625 696.128906 876.246094 698.382812 884.894531 698.339844 C 897.039062 698.277344 909.605469 691.949219 923.621094 678.839844 C 930.796875 672.128906 927.566406 678.351562 1003.402344 525.121094 L 1020.097656 491.382812 L 1017.738281 489.605469 C 1010.300781 483.996094 989.789062 481.015625 977.605469 483.769531 M 239.914062 484.832031 C 226.824219 487.816406 220.351562 492.058594 213.503906 502.136719 C 206.375 512.636719 132.679688 660.285156 127.066406 675.316406 C 119.511719 695.546875 130.519531 702.132812 158.800781 694.300781 C 183.640625 687.417969 203.679688 675.332031 224.480469 654.6875 C 277.113281 602.445312 305.351562 516.167969 277.75 491.933594 C 269.851562 485 253.03125 481.839844 239.914062 484.832031 M 663.542969 658.203125 C 653.683594 661.449219 643.246094 670.234375 631.628906 685.066406 C 624.152344 694.609375 619.75 703.304688 618.992188 710.023438 C 617.914062 719.582031 625.953125 729.714844 637.796875 733.726562 C 654.015625 739.222656 675.824219 729.542969 689.082031 710.964844 C 696.144531 701.066406 698.226562 695.550781 698.324219 686.457031 C 698.453125 674.28125 693.324219 665.511719 682.984375 660.238281 C 678.351562 657.875 667.867188 656.777344 663.542969 658.203125 " fill-opacity="1" fill-rule="evenodd"/><path fill="#f4e92e" d="M 692.1875 67.730469 C 646.023438 74.832031 591.167969 99.773438 526.5625 143.035156 C 481.496094 173.210938 424.914062 226.132812 385.46875 275 C 371.15625 292.730469 342.707031 331.796875 342.707031 333.722656 C 342.707031 334.082031 369.753906 334.375 402.804688 334.375 L 462.902344 334.375 L 490.042969 307.5 C 530.613281 267.332031 558.070312 244.109375 599.480469 214.933594 C 642.644531 184.523438 706.675781 155.597656 745.832031 148.824219 C 756.695312 146.945312 784.582031 147.238281 796.675781 149.359375 C 852.203125 159.105469 869.605469 203.582031 852.511719 292.074219 C 850.371094 303.152344 846.539062 317.890625 841.988281 332.550781 C 841.460938 334.261719 843.398438 334.375 872.863281 334.375 C 893.398438 334.375 905.035156 333.984375 906.40625 333.25 C 909.597656 331.542969 912.453125 324.226562 912.472656 317.707031 C 912.496094 309.945312 910 295.09375 906.820312 284.125 C 901.335938 265.191406 895.757812 252.386719 875.402344 211.980469 C 863.859375 189.0625 852.144531 165.15625 849.371094 158.855469 C 834.546875 125.195312 812.679688 99.09375 785.835938 83.011719 C 760.53125 67.855469 726.980469 62.378906 692.1875 67.730469 M 224.449219 654.425781 L 217.1875 661.980469 L 224.738281 654.714844 C 231.753906 647.96875 232.769531 646.875 232.003906 646.875 C 231.84375 646.875 228.445312 650.273438 224.449219 654.425781 M 378.125 735.417969 L 372.394531 736.117188 L 377.804688 736.289062 C 380.777344 736.382812 383.5 735.988281 383.855469 735.417969 C 384.207031 734.84375 384.351562 734.449219 384.175781 734.542969 C 384 734.636719 381.277344 735.03125 378.125 735.417969 M 969.011719 778.296875 L 964.582031 779.289062 L 964.582031 791.667969 L 955.207031 791.667969 L 955.207031 800 L 963.78125 800 L 963.164062 805.46875 C 962.824219 808.476562 962.238281 819.707031 961.855469 830.421875 C 960.960938 855.65625 961.796875 857.808594 973.488281 860.429688 C 977.609375 861.351562 988.863281 860.46875 990.179688 859.117188 C 990.324219 858.972656 990.757812 857.148438 991.148438 855.058594 L 991.855469 851.265625 L 985.078125 851.808594 C 978.816406 852.3125 978.097656 852.148438 975.609375 849.664062 C 973.144531 847.199219 972.917969 846.234375 972.921875 838.328125 C 972.921875 833.574219 973.230469 823.007812 973.601562 814.84375 L 974.28125 800 L 993.75 800 L 993.75 791.667969 L 975 791.667969 L 975 784.375 C 975 780.363281 974.648438 777.132812 974.21875 777.195312 C 973.789062 777.257812 971.445312 777.753906 969.011719 778.296875 M 937.785156 790.5625 C 933.554688 791.609375 929.3125 794.292969 926.339844 797.800781 L 924.035156 800.519531 L 923.957031 791.667969 L 912.730469 791.667969 L 912.113281 803.90625 C 911.773438 810.636719 911.199219 825.871094 910.839844 837.761719 L 910.1875 859.375 L 921.570312 859.375 L 922.183594 839.324219 C 922.828125 818.222656 923.542969 813.925781 927.378906 808.234375 C 931.386719 802.285156 935.832031 800 943.382812 800 L 950 800 L 950 795.894531 C 950 793.636719 949.644531 791.570312 949.210938 791.300781 C 947.4375 790.207031 940.933594 789.785156 937.785156 790.5625 M 112.75 792.96875 C 109.40625 796.539062 108.332031 800.429688 108.332031 808.980469 C 108.332031 822.792969 114.207031 845.773438 123.523438 868.421875 C 125.601562 873.472656 135.652344 894.011719 145.863281 914.0625 C 156.074219 934.113281 167.261719 956.957031 170.730469 964.824219 C 195.769531 1021.621094 236.410156 1053.847656 288.730469 1058.390625 C 342.179688 1063.03125 404.855469 1040.050781 489.0625 984.9375 C 540.949219 950.980469 600.386719 894.761719 644.390625 838.019531 C 653.539062 826.222656 670.875 802.066406 676.347656 793.488281 L 678.171875 790.625 L 557.480469 790.625 L 532.648438 815.40625 C 490.753906 857.210938 451.171875 890.167969 411.980469 915.886719 C 371.546875 942.414062 323.738281 964.171875 283.855469 974.1875 C 275.511719 976.285156 271.902344 976.542969 251.042969 976.554688 C 231.871094 976.558594 226.105469 976.210938 219.382812 974.636719 C 165.941406 962.109375 150.574219 916.9375 169.195312 827.082031 C 171.527344 815.828125 176.332031 798.25 178.660156 792.449219 C 179.34375 790.734375 177.441406 790.625 147.167969 790.625 C 115.097656 790.625 114.9375 790.636719 112.75 792.96875 M 708.371094 791.847656 C 700.691406 794.050781 695.832031 799.941406 695.832031 807.054688 C 695.832031 811.933594 701.226562 818.941406 712.363281 828.527344 C 718.554688 833.859375 723.167969 838.664062 723.550781 840.175781 C 724.949219 845.753906 720.828125 850.667969 713.222656 852.492188 C 709.726562 853.332031 698.652344 851.476562 694.574219 849.367188 L 691.667969 847.863281 L 691.667969 858.253906 L 696.09375 859.488281 C 698.527344 860.164062 704.792969 860.738281 710.019531 860.757812 C 718.363281 860.789062 720.246094 860.4375 725.503906 857.867188 C 730.511719 855.417969 731.824219 854.179688 733.550781 850.269531 C 737.804688 840.65625 733.945312 832.648438 719.910156 821.964844 C 710.066406 814.472656 708.332031 812.265625 708.332031 807.222656 C 708.332031 801.3125 711.136719 799.480469 720.160156 799.480469 C 724.253906 799.480469 729.484375 799.851562 731.78125 800.308594 L 735.960938 801.140625 L 735.59375 796.53125 L 735.226562 791.925781 L 730.488281 791.273438 C 723.726562 790.347656 712.59375 790.636719 708.371094 791.847656 M 766.144531 791.339844 C 755.847656 792.667969 752.082031 793.921875 751.632812 796.167969 C 751.382812 797.414062 750.667969 814.84375 750.039062 834.894531 C 749.414062 854.949219 748.613281 875.457031 748.257812 880.46875 L 747.617188 889.582031 L 760.417969 889.582031 L 760.417969 874.105469 C 760.417969 865.589844 760.714844 856.445312 761.082031 853.78125 L 761.742188 848.941406 L 766.605469 853.488281 C 772.425781 858.929688 777.53125 860.867188 785.957031 860.824219 C 793.539062 860.785156 802.59375 857.011719 807.417969 851.875 C 815.945312 842.792969 819.007812 825.785156 814.675781 811.527344 C 811.683594 801.679688 805.292969 794.746094 796.945312 792.289062 C 791.628906 790.726562 774.910156 790.210938 766.144531 791.339844 M 850.347656 792.554688 C 836.335938 797.394531 827.894531 810.136719 827.8125 826.5625 C 827.769531 835.355469 829.234375 840.945312 833.09375 846.691406 C 839.558594 856.320312 850.621094 860.996094 865.007812 860.183594 C 879.414062 859.371094 888.082031 853.582031 894.082031 840.761719 C 896.835938 834.878906 897.285156 832.71875 897.335938 825.042969 C 897.417969 813.003906 895.101562 806.550781 888.144531 799.414062 C 884.074219 795.238281 881.472656 793.554688 877.152344 792.285156 C 869.617188 790.074219 857.160156 790.199219 850.347656 792.554688 M 1014.144531 792.171875 C 1007.605469 794.503906 1003.96875 798.871094 1003.367188 805.121094 C 1002.597656 813.128906 1004.148438 815.101562 1026.90625 835.027344 C 1029.894531 837.648438 1030.625 839.03125 1030.625 842.089844 C 1030.625 852.09375 1016.441406 855.628906 1001.445312 849.363281 L 997.621094 847.765625 L 998.277344 851.746094 C 998.640625 853.9375 998.941406 856.265625 998.945312 856.917969 C 998.960938 858.574219 1001.355469 859.332031 1010.011719 860.429688 C 1018.648438 861.527344 1029.074219 860.214844 1033.851562 857.433594 C 1041.792969 852.808594 1044.089844 842.335938 1039.046875 833.734375 C 1037.605469 831.277344 1033.503906 827.058594 1029.933594 824.367188 C 1020.28125 817.085938 1015.792969 812.515625 1015.074219 809.230469 C 1013.410156 801.652344 1018.371094 798.386719 1030.15625 799.300781 C 1034.480469 799.632812 1039.074219 800.21875 1040.363281 800.597656 C 1042.550781 801.238281 1042.707031 800.964844 1042.707031 796.617188 L 1042.707031 791.949219 L 1037.875 791.289062 C 1029.910156 790.195312 1018.496094 790.621094 1014.144531 792.171875 M 770.511719 800.101562 C 762.164062 802.066406 762.5 801.230469 762.5 820.019531 C 762.5 839.152344 763.714844 843.476562 770.542969 848.683594 C 775.578125 852.523438 785.320312 853.242188 791.230469 850.210938 C 800.511719 845.453125 804.679688 837.152344 804.675781 823.4375 C 804.671875 812.921875 802.507812 807.132812 797.160156 803.332031 C 791.40625 799.242188 780.023438 797.863281 770.511719 800.101562 M 853.636719 800.835938 C 837.042969 808.632812 834.667969 837.734375 849.761719 848.339844 C 858.347656 854.375 870.738281 852.949219 878.34375 845.042969 C 888.914062 834.0625 887.660156 810.171875 876.121094 802.53125 C 870.394531 798.742188 859.789062 797.945312 853.636719 800.835938 " fill-opacity="1" fill-rule="evenodd"/></svg>